<mxfile host="app.diagrams.net" modified="2022-02-24T10:24:25.587Z" agent="5.0 (Windows NT 10.0; Win64; x64) AppleWebKit/537.36 (KHTML, like Gecko) Chrome/98.0.4758.102 Safari/537.36" etag="8Xy155VHwJIO6xSHfz31" version="16.6.2" type="github">
  <diagram id="Ua5KiQkyGIAItyvjl1Vw" name="Page-1">
    <mxGraphModel dx="1422" dy="772" grid="1" gridSize="10" guides="1" tooltips="1" connect="1" arrows="1" fold="1" page="1" pageScale="1" pageWidth="850" pageHeight="1100" math="0" shadow="0">
      <root>
        <mxCell id="0" />
        <mxCell id="1" parent="0" />
        <mxCell id="Vnq8TmZSHOnOPXnzGoxB-19" value="" style="edgeStyle=segmentEdgeStyle;endArrow=classic;html=1;rounded=0;exitX=0;exitY=0.5;exitDx=0;exitDy=0;entryX=1;entryY=0.5;entryDx=0;entryDy=0;" edge="1" parent="1" source="Vnq8TmZSHOnOPXnzGoxB-18" target="Vnq8TmZSHOnOPXnzGoxB-20">
          <mxGeometry width="50" height="50" relative="1" as="geometry">
            <mxPoint x="480" y="350" as="sourcePoint" />
            <mxPoint x="580" y="147" as="targetPoint" />
            <Array as="points">
              <mxPoint x="400" y="333" />
              <mxPoint x="400" y="197" />
            </Array>
          </mxGeometry>
        </mxCell>
        <mxCell id="Vnq8TmZSHOnOPXnzGoxB-22" value="" style="edgeStyle=segmentEdgeStyle;endArrow=classic;html=1;rounded=0;exitX=0;exitY=0.5;exitDx=0;exitDy=0;entryX=1;entryY=0.5;entryDx=0;entryDy=0;" edge="1" parent="1" source="Vnq8TmZSHOnOPXnzGoxB-21" target="Vnq8TmZSHOnOPXnzGoxB-5">
          <mxGeometry width="50" height="50" relative="1" as="geometry">
            <mxPoint x="310" y="271" as="sourcePoint" />
            <mxPoint x="360" y="221" as="targetPoint" />
            <Array as="points">
              <mxPoint x="210" y="223" />
              <mxPoint x="210" y="111" />
            </Array>
          </mxGeometry>
        </mxCell>
        <mxCell id="Vnq8TmZSHOnOPXnzGoxB-23" value="" style="group;fillColor=default;" vertex="1" connectable="0" parent="1">
          <mxGeometry x="230" y="80" width="140" height="156" as="geometry" />
        </mxCell>
        <mxCell id="Vnq8TmZSHOnOPXnzGoxB-6" value="Test" style="swimlane;fontStyle=0;childLayout=stackLayout;horizontal=1;startSize=26;fillColor=none;horizontalStack=0;resizeParent=1;resizeParentMax=0;resizeLast=0;collapsible=1;marginBottom=0;" vertex="1" parent="Vnq8TmZSHOnOPXnzGoxB-23">
          <mxGeometry width="140" height="104" as="geometry" />
        </mxCell>
        <mxCell id="Vnq8TmZSHOnOPXnzGoxB-7" value="date_created: date" style="text;strokeColor=none;fillColor=none;align=left;verticalAlign=top;spacingLeft=4;spacingRight=4;overflow=hidden;rotatable=0;points=[[0,0.5],[1,0.5]];portConstraint=eastwest;" vertex="1" parent="Vnq8TmZSHOnOPXnzGoxB-6">
          <mxGeometry y="26" width="140" height="26" as="geometry" />
        </mxCell>
        <mxCell id="Vnq8TmZSHOnOPXnzGoxB-8" value="date_modified: date" style="text;strokeColor=default;fillColor=none;align=left;verticalAlign=top;spacingLeft=4;spacingRight=4;overflow=hidden;rotatable=0;points=[[0,0.5],[1,0.5]];portConstraint=eastwest;" vertex="1" parent="Vnq8TmZSHOnOPXnzGoxB-6">
          <mxGeometry y="52" width="140" height="26" as="geometry" />
        </mxCell>
        <mxCell id="Vnq8TmZSHOnOPXnzGoxB-9" value="topic: varchar(63)" style="text;strokeColor=default;fillColor=none;align=left;verticalAlign=top;spacingLeft=4;spacingRight=4;overflow=hidden;rotatable=0;points=[[0,0.5],[1,0.5]];portConstraint=eastwest;" vertex="1" parent="Vnq8TmZSHOnOPXnzGoxB-6">
          <mxGeometry y="78" width="140" height="26" as="geometry" />
        </mxCell>
        <mxCell id="Vnq8TmZSHOnOPXnzGoxB-20" value="id: uuid" style="text;strokeColor=default;fillColor=none;align=left;verticalAlign=top;spacingLeft=4;spacingRight=4;overflow=hidden;rotatable=0;points=[[0,0.5],[1,0.5]];portConstraint=eastwest;" vertex="1" parent="Vnq8TmZSHOnOPXnzGoxB-23">
          <mxGeometry y="104" width="140" height="26" as="geometry" />
        </mxCell>
        <mxCell id="Vnq8TmZSHOnOPXnzGoxB-21" value="owner_id: uuid" style="text;strokeColor=default;fillColor=none;align=left;verticalAlign=top;spacingLeft=4;spacingRight=4;overflow=hidden;rotatable=0;points=[[0,0.5],[1,0.5]];portConstraint=eastwest;" vertex="1" parent="Vnq8TmZSHOnOPXnzGoxB-23">
          <mxGeometry y="130" width="140" height="26" as="geometry" />
        </mxCell>
        <mxCell id="Vnq8TmZSHOnOPXnzGoxB-39" value="" style="group;fillColor=default;" vertex="1" connectable="0" parent="1">
          <mxGeometry x="640" y="346" width="140" height="182" as="geometry" />
        </mxCell>
        <mxCell id="Vnq8TmZSHOnOPXnzGoxB-32" value="Answer" style="swimlane;fontStyle=0;childLayout=stackLayout;horizontal=1;startSize=26;fillColor=none;horizontalStack=0;resizeParent=1;resizeParentMax=0;resizeLast=0;collapsible=1;marginBottom=0;strokeColor=default;" vertex="1" parent="Vnq8TmZSHOnOPXnzGoxB-39">
          <mxGeometry width="140" height="104" as="geometry" />
        </mxCell>
        <mxCell id="Vnq8TmZSHOnOPXnzGoxB-33" value="question_id: uuid" style="text;strokeColor=default;fillColor=none;align=left;verticalAlign=top;spacingLeft=4;spacingRight=4;overflow=hidden;rotatable=0;points=[[0,0.5],[1,0.5]];portConstraint=eastwest;" vertex="1" parent="Vnq8TmZSHOnOPXnzGoxB-32">
          <mxGeometry y="26" width="140" height="26" as="geometry" />
        </mxCell>
        <mxCell id="Vnq8TmZSHOnOPXnzGoxB-34" value="id: uuid" style="text;strokeColor=default;fillColor=none;align=left;verticalAlign=top;spacingLeft=4;spacingRight=4;overflow=hidden;rotatable=0;points=[[0,0.5],[1,0.5]];portConstraint=eastwest;" vertex="1" parent="Vnq8TmZSHOnOPXnzGoxB-32">
          <mxGeometry y="52" width="140" height="26" as="geometry" />
        </mxCell>
        <mxCell id="Vnq8TmZSHOnOPXnzGoxB-35" value="is_true: bool" style="text;strokeColor=default;fillColor=none;align=left;verticalAlign=top;spacingLeft=4;spacingRight=4;overflow=hidden;rotatable=0;points=[[0,0.5],[1,0.5]];portConstraint=eastwest;" vertex="1" parent="Vnq8TmZSHOnOPXnzGoxB-32">
          <mxGeometry y="78" width="140" height="26" as="geometry" />
        </mxCell>
        <mxCell id="Vnq8TmZSHOnOPXnzGoxB-36" value="date_created: date" style="text;strokeColor=default;fillColor=none;align=left;verticalAlign=top;spacingLeft=4;spacingRight=4;overflow=hidden;rotatable=0;points=[[0,0.5],[1,0.5]];portConstraint=eastwest;" vertex="1" parent="Vnq8TmZSHOnOPXnzGoxB-39">
          <mxGeometry y="104" width="140" height="26" as="geometry" />
        </mxCell>
        <mxCell id="Vnq8TmZSHOnOPXnzGoxB-37" value="date_modified: date" style="text;strokeColor=default;fillColor=none;align=left;verticalAlign=top;spacingLeft=4;spacingRight=4;overflow=hidden;rotatable=0;points=[[0,0.5],[1,0.5]];portConstraint=eastwest;" vertex="1" parent="Vnq8TmZSHOnOPXnzGoxB-39">
          <mxGeometry y="130" width="140" height="26" as="geometry" />
        </mxCell>
        <mxCell id="Vnq8TmZSHOnOPXnzGoxB-38" value="text: text" style="text;strokeColor=default;fillColor=none;align=left;verticalAlign=top;spacingLeft=4;spacingRight=4;overflow=hidden;rotatable=0;points=[[0,0.5],[1,0.5]];portConstraint=eastwest;" vertex="1" parent="Vnq8TmZSHOnOPXnzGoxB-39">
          <mxGeometry y="156" width="140" height="26" as="geometry" />
        </mxCell>
        <mxCell id="Vnq8TmZSHOnOPXnzGoxB-40" value="" style="edgeStyle=segmentEdgeStyle;endArrow=classic;html=1;rounded=0;entryX=1;entryY=0.5;entryDx=0;entryDy=0;exitX=0;exitY=0.5;exitDx=0;exitDy=0;" edge="1" parent="1" source="Vnq8TmZSHOnOPXnzGoxB-33" target="Vnq8TmZSHOnOPXnzGoxB-48">
          <mxGeometry width="50" height="50" relative="1" as="geometry">
            <mxPoint x="400" y="420" as="sourcePoint" />
            <mxPoint x="560" y="420" as="targetPoint" />
            <Array as="points">
              <mxPoint x="600" y="385" />
              <mxPoint x="600" y="359" />
            </Array>
          </mxGeometry>
        </mxCell>
        <mxCell id="Vnq8TmZSHOnOPXnzGoxB-54" value="" style="group;fillColor=default;" vertex="1" connectable="0" parent="1">
          <mxGeometry x="30" y="20" width="160" height="130" as="geometry" />
        </mxCell>
        <mxCell id="Vnq8TmZSHOnOPXnzGoxB-2" value="User" style="swimlane;fontStyle=0;childLayout=stackLayout;horizontal=1;startSize=26;fillColor=none;horizontalStack=0;resizeParent=1;resizeParentMax=0;resizeLast=0;collapsible=1;marginBottom=0;" vertex="1" parent="Vnq8TmZSHOnOPXnzGoxB-54">
          <mxGeometry width="160" height="104" as="geometry" />
        </mxCell>
        <mxCell id="Vnq8TmZSHOnOPXnzGoxB-3" value="email: varchar(255)" style="text;strokeColor=default;fillColor=none;align=left;verticalAlign=top;spacingLeft=4;spacingRight=4;overflow=hidden;rotatable=0;points=[[0,0.5],[1,0.5]];portConstraint=eastwest;" vertex="1" parent="Vnq8TmZSHOnOPXnzGoxB-2">
          <mxGeometry y="26" width="160" height="26" as="geometry" />
        </mxCell>
        <mxCell id="Vnq8TmZSHOnOPXnzGoxB-4" value="password: varchar(255)" style="text;strokeColor=default;fillColor=none;align=left;verticalAlign=top;spacingLeft=4;spacingRight=4;overflow=hidden;rotatable=0;points=[[0,0.5],[1,0.5]];portConstraint=eastwest;" vertex="1" parent="Vnq8TmZSHOnOPXnzGoxB-2">
          <mxGeometry y="52" width="160" height="26" as="geometry" />
        </mxCell>
        <mxCell id="Vnq8TmZSHOnOPXnzGoxB-5" value="name: varchar(63)" style="text;strokeColor=none;fillColor=none;align=left;verticalAlign=top;spacingLeft=4;spacingRight=4;overflow=hidden;rotatable=0;points=[[0,0.5],[1,0.5]];portConstraint=eastwest;" vertex="1" parent="Vnq8TmZSHOnOPXnzGoxB-2">
          <mxGeometry y="78" width="160" height="26" as="geometry" />
        </mxCell>
        <mxCell id="Vnq8TmZSHOnOPXnzGoxB-53" value="id: uuid" style="text;strokeColor=default;fillColor=none;align=left;verticalAlign=top;spacingLeft=4;spacingRight=4;overflow=hidden;rotatable=0;points=[[0,0.5],[1,0.5]];portConstraint=eastwest;" vertex="1" parent="Vnq8TmZSHOnOPXnzGoxB-54">
          <mxGeometry y="104" width="160" height="26" as="geometry" />
        </mxCell>
        <mxCell id="Vnq8TmZSHOnOPXnzGoxB-57" value="" style="edgeStyle=segmentEdgeStyle;endArrow=classic;html=1;rounded=0;exitX=1;exitY=0.5;exitDx=0;exitDy=0;entryX=0;entryY=0.5;entryDx=0;entryDy=0;" edge="1" parent="1" source="Vnq8TmZSHOnOPXnzGoxB-55" target="Vnq8TmZSHOnOPXnzGoxB-34">
          <mxGeometry width="50" height="50" relative="1" as="geometry">
            <mxPoint x="400" y="420" as="sourcePoint" />
            <mxPoint x="450" y="370" as="targetPoint" />
            <Array as="points">
              <mxPoint x="600" y="597" />
              <mxPoint x="600" y="411" />
            </Array>
          </mxGeometry>
        </mxCell>
        <mxCell id="Vnq8TmZSHOnOPXnzGoxB-62" value="" style="edgeStyle=segmentEdgeStyle;endArrow=classic;html=1;rounded=0;entryX=1;entryY=0.5;entryDx=0;entryDy=0;exitX=0;exitY=0.5;exitDx=0;exitDy=0;" edge="1" parent="1" source="Vnq8TmZSHOnOPXnzGoxB-52" target="Vnq8TmZSHOnOPXnzGoxB-59">
          <mxGeometry width="50" height="50" relative="1" as="geometry">
            <mxPoint x="390" y="590" as="sourcePoint" />
            <mxPoint x="450" y="370" as="targetPoint" />
            <Array as="points">
              <mxPoint x="350" y="571" />
              <mxPoint x="350" y="429" />
            </Array>
          </mxGeometry>
        </mxCell>
        <mxCell id="Vnq8TmZSHOnOPXnzGoxB-70" value="" style="group;fillColor=default;" vertex="1" connectable="0" parent="1">
          <mxGeometry x="425" y="190" width="140" height="182" as="geometry" />
        </mxCell>
        <mxCell id="Vnq8TmZSHOnOPXnzGoxB-31" value="" style="group" vertex="1" connectable="0" parent="Vnq8TmZSHOnOPXnzGoxB-70">
          <mxGeometry width="140" height="156" as="geometry" />
        </mxCell>
        <mxCell id="Vnq8TmZSHOnOPXnzGoxB-11" value="Question" style="swimlane;fontStyle=0;childLayout=stackLayout;horizontal=1;startSize=26;fillColor=none;horizontalStack=0;resizeParent=1;resizeParentMax=0;resizeLast=0;collapsible=1;marginBottom=0;strokeColor=default;" vertex="1" parent="Vnq8TmZSHOnOPXnzGoxB-31">
          <mxGeometry width="140" height="104" as="geometry" />
        </mxCell>
        <mxCell id="Vnq8TmZSHOnOPXnzGoxB-12" value="date_created: date" style="text;strokeColor=none;fillColor=none;align=left;verticalAlign=top;spacingLeft=4;spacingRight=4;overflow=hidden;rotatable=0;points=[[0,0.5],[1,0.5]];portConstraint=eastwest;" vertex="1" parent="Vnq8TmZSHOnOPXnzGoxB-11">
          <mxGeometry y="26" width="140" height="26" as="geometry" />
        </mxCell>
        <mxCell id="Vnq8TmZSHOnOPXnzGoxB-13" value="date_modified" style="text;strokeColor=default;fillColor=none;align=left;verticalAlign=top;spacingLeft=4;spacingRight=4;overflow=hidden;rotatable=0;points=[[0,0.5],[1,0.5]];portConstraint=eastwest;" vertex="1" parent="Vnq8TmZSHOnOPXnzGoxB-11">
          <mxGeometry y="52" width="140" height="26" as="geometry" />
        </mxCell>
        <mxCell id="Vnq8TmZSHOnOPXnzGoxB-14" value="text: text" style="text;strokeColor=default;fillColor=none;align=left;verticalAlign=top;spacingLeft=4;spacingRight=4;overflow=hidden;rotatable=0;points=[[0,0.5],[1,0.5]];portConstraint=eastwest;" vertex="1" parent="Vnq8TmZSHOnOPXnzGoxB-11">
          <mxGeometry y="78" width="140" height="26" as="geometry" />
        </mxCell>
        <mxCell id="Vnq8TmZSHOnOPXnzGoxB-17" value="image: image" style="text;strokeColor=default;fillColor=none;align=left;verticalAlign=top;spacingLeft=4;spacingRight=4;overflow=hidden;rotatable=0;points=[[0,0.5],[1,0.5]];portConstraint=eastwest;" vertex="1" parent="Vnq8TmZSHOnOPXnzGoxB-31">
          <mxGeometry y="104" width="140" height="26" as="geometry" />
        </mxCell>
        <mxCell id="Vnq8TmZSHOnOPXnzGoxB-18" value="test_id: uuid" style="text;strokeColor=default;fillColor=none;align=left;verticalAlign=top;spacingLeft=4;spacingRight=4;overflow=hidden;rotatable=0;points=[[0,0.5],[1,0.5]];portConstraint=eastwest;" vertex="1" parent="Vnq8TmZSHOnOPXnzGoxB-31">
          <mxGeometry y="130" width="140" height="26" as="geometry" />
        </mxCell>
        <mxCell id="Vnq8TmZSHOnOPXnzGoxB-48" value="id: uuid" style="text;strokeColor=default;fillColor=none;align=left;verticalAlign=top;spacingLeft=4;spacingRight=4;overflow=hidden;rotatable=0;points=[[0,0.5],[1,0.5]];portConstraint=eastwest;" vertex="1" parent="Vnq8TmZSHOnOPXnzGoxB-70">
          <mxGeometry y="156" width="140" height="26" as="geometry" />
        </mxCell>
        <mxCell id="Vnq8TmZSHOnOPXnzGoxB-72" value="" style="group" vertex="1" connectable="0" parent="1">
          <mxGeometry x="425" y="480" width="140" height="156" as="geometry" />
        </mxCell>
        <mxCell id="Vnq8TmZSHOnOPXnzGoxB-56" value="" style="group;strokeColor=default;fillColor=default;" vertex="1" connectable="0" parent="Vnq8TmZSHOnOPXnzGoxB-72">
          <mxGeometry width="140" height="130" as="geometry" />
        </mxCell>
        <mxCell id="Vnq8TmZSHOnOPXnzGoxB-49" value="UserAnswer" style="swimlane;fontStyle=0;childLayout=stackLayout;horizontal=1;startSize=26;fillColor=none;horizontalStack=0;resizeParent=1;resizeParentMax=0;resizeLast=0;collapsible=1;marginBottom=0;strokeColor=default;" vertex="1" parent="Vnq8TmZSHOnOPXnzGoxB-56">
          <mxGeometry width="140" height="104" as="geometry" />
        </mxCell>
        <mxCell id="Vnq8TmZSHOnOPXnzGoxB-50" value="date_created: date" style="text;strokeColor=default;fillColor=none;align=left;verticalAlign=top;spacingLeft=4;spacingRight=4;overflow=hidden;rotatable=0;points=[[0,0.5],[1,0.5]];portConstraint=eastwest;" vertex="1" parent="Vnq8TmZSHOnOPXnzGoxB-49">
          <mxGeometry y="26" width="140" height="26" as="geometry" />
        </mxCell>
        <mxCell id="Vnq8TmZSHOnOPXnzGoxB-51" value="date_modified: date" style="text;strokeColor=default;fillColor=none;align=left;verticalAlign=top;spacingLeft=4;spacingRight=4;overflow=hidden;rotatable=0;points=[[0,0.5],[1,0.5]];portConstraint=eastwest;" vertex="1" parent="Vnq8TmZSHOnOPXnzGoxB-49">
          <mxGeometry y="52" width="140" height="26" as="geometry" />
        </mxCell>
        <mxCell id="Vnq8TmZSHOnOPXnzGoxB-52" value="session_id: uuid" style="text;strokeColor=default;fillColor=none;align=left;verticalAlign=top;spacingLeft=4;spacingRight=4;overflow=hidden;rotatable=0;points=[[0,0.5],[1,0.5]];portConstraint=eastwest;" vertex="1" parent="Vnq8TmZSHOnOPXnzGoxB-49">
          <mxGeometry y="78" width="140" height="26" as="geometry" />
        </mxCell>
        <mxCell id="Vnq8TmZSHOnOPXnzGoxB-55" value="answer_id: uuid" style="text;strokeColor=default;fillColor=none;align=left;verticalAlign=top;spacingLeft=4;spacingRight=4;overflow=hidden;rotatable=0;points=[[0,0.5],[1,0.5]];portConstraint=eastwest;" vertex="1" parent="Vnq8TmZSHOnOPXnzGoxB-56">
          <mxGeometry y="104" width="140" height="26" as="geometry" />
        </mxCell>
        <mxCell id="Vnq8TmZSHOnOPXnzGoxB-69" value="id: uuid" style="text;strokeColor=default;fillColor=default;align=left;verticalAlign=top;spacingLeft=4;spacingRight=4;overflow=hidden;rotatable=0;points=[[0,0.5],[1,0.5]];portConstraint=eastwest;" vertex="1" parent="Vnq8TmZSHOnOPXnzGoxB-72">
          <mxGeometry y="130" width="140" height="26" as="geometry" />
        </mxCell>
        <mxCell id="Vnq8TmZSHOnOPXnzGoxB-75" value="" style="group" vertex="1" connectable="0" parent="1">
          <mxGeometry x="110" y="390" width="140" height="182" as="geometry" />
        </mxCell>
        <mxCell id="Vnq8TmZSHOnOPXnzGoxB-58" value="Session" style="swimlane;fontStyle=0;childLayout=stackLayout;horizontal=1;startSize=26;fillColor=default;horizontalStack=0;resizeParent=1;resizeParentMax=0;resizeLast=0;collapsible=1;marginBottom=0;strokeColor=default;" vertex="1" parent="Vnq8TmZSHOnOPXnzGoxB-75">
          <mxGeometry width="140" height="104" as="geometry" />
        </mxCell>
        <mxCell id="Vnq8TmZSHOnOPXnzGoxB-59" value="id: uuid" style="text;strokeColor=default;fillColor=default;align=left;verticalAlign=top;spacingLeft=4;spacingRight=4;overflow=hidden;rotatable=0;points=[[0,0.5],[1,0.5]];portConstraint=eastwest;" vertex="1" parent="Vnq8TmZSHOnOPXnzGoxB-58">
          <mxGeometry y="26" width="140" height="26" as="geometry" />
        </mxCell>
        <mxCell id="Vnq8TmZSHOnOPXnzGoxB-60" value="user_id: uuid" style="text;strokeColor=default;fillColor=default;align=left;verticalAlign=top;spacingLeft=4;spacingRight=4;overflow=hidden;rotatable=0;points=[[0,0.5],[1,0.5]];portConstraint=eastwest;gradientColor=none;" vertex="1" parent="Vnq8TmZSHOnOPXnzGoxB-58">
          <mxGeometry y="52" width="140" height="26" as="geometry" />
        </mxCell>
        <mxCell id="Vnq8TmZSHOnOPXnzGoxB-61" value="test_id: uuid" style="text;strokeColor=default;fillColor=default;align=left;verticalAlign=top;spacingLeft=4;spacingRight=4;overflow=hidden;rotatable=0;points=[[0,0.5],[1,0.5]];portConstraint=eastwest;" vertex="1" parent="Vnq8TmZSHOnOPXnzGoxB-58">
          <mxGeometry y="78" width="140" height="26" as="geometry" />
        </mxCell>
        <mxCell id="Vnq8TmZSHOnOPXnzGoxB-71" value="date_created: date" style="text;strokeColor=default;fillColor=default;align=left;verticalAlign=top;spacingLeft=4;spacingRight=4;overflow=hidden;rotatable=0;points=[[0,0.5],[1,0.5]];portConstraint=eastwest;" vertex="1" parent="Vnq8TmZSHOnOPXnzGoxB-75">
          <mxGeometry y="104" width="140" height="26" as="geometry" />
        </mxCell>
        <mxCell id="Vnq8TmZSHOnOPXnzGoxB-73" value="date_modified: date" style="text;strokeColor=default;fillColor=default;align=left;verticalAlign=top;spacingLeft=4;spacingRight=4;overflow=hidden;rotatable=0;points=[[0,0.5],[1,0.5]];portConstraint=eastwest;" vertex="1" parent="Vnq8TmZSHOnOPXnzGoxB-75">
          <mxGeometry y="130" width="140" height="26" as="geometry" />
        </mxCell>
        <mxCell id="Vnq8TmZSHOnOPXnzGoxB-74" value="date_finished: date" style="text;strokeColor=default;fillColor=default;align=left;verticalAlign=top;spacingLeft=4;spacingRight=4;overflow=hidden;rotatable=0;points=[[0,0.5],[1,0.5]];portConstraint=eastwest;" vertex="1" parent="Vnq8TmZSHOnOPXnzGoxB-75">
          <mxGeometry y="156" width="140" height="26" as="geometry" />
        </mxCell>
        <mxCell id="Vnq8TmZSHOnOPXnzGoxB-76" value="SessionQuestion" style="swimlane;fontStyle=0;childLayout=stackLayout;horizontal=1;startSize=26;fillColor=none;horizontalStack=0;resizeParent=1;resizeParentMax=0;resizeLast=0;collapsible=1;marginBottom=0;strokeColor=default;" vertex="1" parent="1">
          <mxGeometry x="80" y="242" width="140" height="104" as="geometry" />
        </mxCell>
        <mxCell id="Vnq8TmZSHOnOPXnzGoxB-77" value="id: uuid" style="text;strokeColor=none;fillColor=none;align=left;verticalAlign=top;spacingLeft=4;spacingRight=4;overflow=hidden;rotatable=0;points=[[0,0.5],[1,0.5]];portConstraint=eastwest;" vertex="1" parent="Vnq8TmZSHOnOPXnzGoxB-76">
          <mxGeometry y="26" width="140" height="26" as="geometry" />
        </mxCell>
        <mxCell id="Vnq8TmZSHOnOPXnzGoxB-78" value="question_id: uuid" style="text;strokeColor=none;fillColor=none;align=left;verticalAlign=top;spacingLeft=4;spacingRight=4;overflow=hidden;rotatable=0;points=[[0,0.5],[1,0.5]];portConstraint=eastwest;" vertex="1" parent="Vnq8TmZSHOnOPXnzGoxB-76">
          <mxGeometry y="52" width="140" height="26" as="geometry" />
        </mxCell>
        <mxCell id="Vnq8TmZSHOnOPXnzGoxB-79" value="session_id: uuid" style="text;strokeColor=none;fillColor=none;align=left;verticalAlign=top;spacingLeft=4;spacingRight=4;overflow=hidden;rotatable=0;points=[[0,0.5],[1,0.5]];portConstraint=eastwest;" vertex="1" parent="Vnq8TmZSHOnOPXnzGoxB-76">
          <mxGeometry y="78" width="140" height="26" as="geometry" />
        </mxCell>
        <mxCell id="Vnq8TmZSHOnOPXnzGoxB-80" value="" style="edgeStyle=segmentEdgeStyle;endArrow=classic;html=1;rounded=0;exitX=0;exitY=0.5;exitDx=0;exitDy=0;" edge="1" parent="1" source="Vnq8TmZSHOnOPXnzGoxB-79">
          <mxGeometry width="50" height="50" relative="1" as="geometry">
            <mxPoint x="170" y="420" as="sourcePoint" />
            <mxPoint x="110" y="430" as="targetPoint" />
            <Array as="points">
              <mxPoint x="50" y="333" />
              <mxPoint x="50" y="430" />
            </Array>
          </mxGeometry>
        </mxCell>
        <mxCell id="Vnq8TmZSHOnOPXnzGoxB-81" value="" style="edgeStyle=segmentEdgeStyle;endArrow=classic;html=1;rounded=0;entryX=0;entryY=0.5;entryDx=0;entryDy=0;exitX=1;exitY=0.5;exitDx=0;exitDy=0;" edge="1" parent="1" source="Vnq8TmZSHOnOPXnzGoxB-78" target="Vnq8TmZSHOnOPXnzGoxB-48">
          <mxGeometry width="50" height="50" relative="1" as="geometry">
            <mxPoint x="170" y="420" as="sourcePoint" />
            <mxPoint x="220" y="370" as="targetPoint" />
            <Array as="points">
              <mxPoint x="320" y="307" />
              <mxPoint x="320" y="359" />
            </Array>
          </mxGeometry>
        </mxCell>
      </root>
    </mxGraphModel>
  </diagram>
</mxfile>
